# xmcd
#
# Track frame offsets:
#	150
#	27139
#	51823
#	77510
#	106942
#	124230
#	145292
#	170605
#	195214
#	219161
#
# Disc length: 3157 seconds
#
# Revision: 3
# Processed by: cddbd v1.5.2PL0 Copyright (c) Steve Scherf et al.
# Submitted via: Jack! The Knife
#
DISCID=7c0c530a
DTITLE=Flotsam and Jetsam - No Place For Disgrace
DYEAR=1988
DGENRE=Heavy Metal
TTITLE0=No Place For Disgrace
TTITLE1=Dreams Of Death
TTITLE2=N.E. Terror
TTITLE3=Escape From Within
TTITLE4=Saturday Night's Alright For Fighting
TTITLE5=Hard On You
TTITLE6=I Live You Die
TTITLE7=Misguided Fortune
TTITLE8=P.A.A.B.
TTITLE9=The Jones
EXTD=Heavy Metal
EXTT0=Gilbert - Newsted - Smith - Knutson - Carlson
EXTT1=
EXTT2=
EXTT3=
EXTT4=
EXTT5=
EXTT6=
EXTT7=
EXTT8=
EXTT9=
PLAYORDER=
